<svg fill="none" height="48" viewBox="0 0 38 48" width="38" xmlns="http://www.w3.org/2000/svg"><g fill="#e67e22"><path d="m25.0008 24c0 3.3137-2.6863 6-6 6s-6-2.6863-6-6 2.6863-6 6-6 6 2.6863 6 6z"/><path d="m25.0008 10c0 3.3137-2.6863 6-6 6s-6-2.6863-6-6c0-3.31371 2.6863-6 6-6s6 2.68629 6 6z"/><path d="m37.125 31c0 3.3137-2.6863 6-6 6s-6-2.6863-6-6 2.6863-6 6-6 6 2.6863 6 6z"/><path d="m37.127 17.0002c0 3.3137-2.6863 6-6 6-3.3138 0-6-2.6863-6-6s2.6862-6 6-6c3.3137 0 6 2.6863 6 6z"/><path d="m25.0008 38c0 3.3137-2.6863 6-6 6s-6-2.6863-6-6 2.6863-6 6-6 6 2.6863 6 6z"/><path d="m12.877 17c0 3.3137-2.6863 6-6.00005 6-3.31371 0-5.999997-2.6863-5.999997-6s2.686287-6 5.999997-6c3.31375 0 6.00005 2.6863 6.00005 6z"/><path d="m12.875 30.9997c0 3.3137-2.6863 6-6 6-3.31371 0-6-2.6863-6-6s2.68629-6 6-6c3.3137 0 6 2.6863 6 6z"/></g></svg>